<?xml version="1.0" standalone="no"?>
<!DOCTYPE svg PUBLIC "-//W3C//DTD SVG 20010904//EN"
 "http://www.w3.org/TR/2001/REC-SVG-20010904/DTD/svg10.dtd">
<svg version="1.0" xmlns="http://www.w3.org/2000/svg"
 width="500.000000pt" height="500.000000pt" viewBox="0 0 500.000000 500.000000"
 preserveAspectRatio="xMidYMid meet">
<metadata>
Created by potrace 1.14, written by Peter Selinger 2001-2017
</metadata>
<g transform="translate(0.000000,500.000000) scale(0.100000,-0.100000)"
fill="#000000" stroke="none">
<path d="M2180 2900 l-312 -320 -48 0 -48 0 -176 182 -177 182 -33 -35 c-18
-18 -106 -109 -196 -201 l-162 -167 81 0 c59 0 81 4 81 13 0 7 51 66 114 132
l113 119 111 -115 c61 -63 111 -123 112 -132 0 -14 9 -18 41 -18 l41 0 -120
128 c-66 70 -134 140 -151 157 l-31 29 -108 -104 -107 -105 108 110 109 110
156 -162 157 -163 83 0 83 0 301 305 300 305 300 -305 300 -305 81 0 82 0 135
133 135 132 -130 -132 -130 -133 43 0 c33 0 42 4 42 18 0 9 51 68 113 130
l112 112 113 -113 c61 -62 112 -120 112 -130 0 -13 9 -17 42 -17 l43 0 -160
163 -160 162 166 -163 c152 -150 168 -163 198 -160 31 3 29 6 -160 201 l-192
199 -181 -181 c-179 -179 -182 -181 -224 -181 l-43 0 -316 320 c-173 176 -319
320 -323 320 -4 0 -148 -144 -320 -320z"/>
<path d="M1860 3034 l-115 -116 -144 11 c-80 6 -146 9 -148 7 -2 -2 69 -78
158 -170 l161 -166 47 0 47 0 139 141 c104 104 136 142 126 149 -8 4 -83 11
-168 15 -90 4 -153 12 -153 17 0 6 37 48 82 94 l82 85 98 -98 c78 -77 100 -95
110 -85 10 10 -10 35 -98 122 l-110 111 -114 -117z"/>
<path d="M2090 3046 l105 -106 72 72 c40 40 73 75 73 79 0 3 -69 16 -152 28
-84 12 -164 25 -178 28 -19 4 1 -21 80 -101z"/>
<path d="M2828 3122 c-93 -14 -168 -28 -168 -31 0 -4 41 -47 91 -96 l91 -90
91 98 92 98 89 -89 c48 -49 84 -92 80 -95 -5 -2 -74 -8 -154 -12 -80 -3 -153
-9 -163 -11 -13 -4 13 -38 120 -150 l137 -144 46 0 45 0 165 165 c90 90 162
166 159 169 -2 2 -70 0 -149 -5 l-146 -10 -114 115 c-111 113 -114 115 -134
98 -20 -16 -20 -16 -7 1 7 9 10 17 5 16 -5 -1 -84 -13 -176 -27z"/>
<path d="M2265 2878 c-127 -128 -253 -257 -280 -285 l-49 -53 62 0 62 0 0 32
c0 28 25 57 220 253 l220 220 220 -220 c197 -197 220 -223 220 -252 l0 -33 60
0 c33 0 60 3 60 8 0 8 -552 562 -560 562 -3 0 -109 -105 -235 -232z"/>
<path d="M1953 2968 c2 -29 6 -33 35 -35 30 -3 32 -1 32 32 0 33 -2 35 -35 35
-33 0 -35 -2 -32 -32z"/>
<path d="M2983 2968 c2 -29 6 -33 35 -35 30 -3 32 -1 32 32 0 33 -2 35 -35 35
-33 0 -35 -2 -32 -32z"/>
<path d="M2410 2755 c0 -34 1 -35 40 -35 39 0 40 1 40 35 0 34 -1 35 -40 35
-39 0 -40 -1 -40 -35z"/>
<path d="M2510 2755 c0 -34 1 -35 40 -35 39 0 40 1 40 35 0 34 -1 35 -40 35
-39 0 -40 -1 -40 -35z"/>
<path d="M2410 2660 l0 -40 40 0 40 0 0 40 0 40 -40 0 -40 0 0 -40z"/>
<path d="M2510 2660 l0 -40 40 0 40 0 0 40 0 40 -40 0 -40 0 0 -40z"/>
<path d="M1372 2658 c2 -15 11 -24 26 -26 18 -3 22 1 22 22 0 21 -5 26 -26 26
-21 0 -25 -4 -22 -22z"/>
<path d="M1430 2655 c0 -20 5 -25 25 -25 20 0 25 5 25 25 0 20 -5 25 -25 25
-20 0 -25 -5 -25 -25z"/>
<path d="M3520 2655 c0 -20 5 -25 25 -25 20 0 25 5 25 25 0 20 -5 25 -25 25
-20 0 -25 -5 -25 -25z"/>
<path d="M3580 2655 c0 -20 5 -25 25 -25 20 0 25 5 25 25 0 20 -5 25 -25 25
-20 0 -25 -5 -25 -25z"/>
<path d="M1372 2598 c2 -15 11 -24 26 -26 18 -3 22 1 22 22 0 21 -5 26 -26 26
-21 0 -25 -4 -22 -22z"/>
<path d="M1430 2595 c0 -20 5 -25 25 -25 20 0 25 5 25 25 0 20 -5 25 -25 25
-20 0 -25 -5 -25 -25z"/>
<path d="M3520 2595 c0 -20 5 -25 25 -25 20 0 25 5 25 25 0 20 -5 25 -25 25
-20 0 -25 -5 -25 -25z"/>
<path d="M3580 2595 c0 -20 5 -25 25 -25 20 0 25 5 25 25 0 20 -5 25 -25 25
-20 0 -25 -5 -25 -25z"/>
<path d="M1030 2470 c0 -20 7 -20 570 -20 563 0 570 0 570 20 0 20 -7 20 -570
20 -563 0 -570 0 -570 -20z"/>
<path d="M2830 2470 c0 -20 7 -20 570 -20 563 0 570 0 570 20 0 20 -7 20 -570
20 -563 0 -570 0 -570 -20z"/>
<path d="M1015 2268 c-2 -7 -20 -58 -40 -113 -19 -55 -35 -101 -35 -102 0 -2
13 -3 30 -3 23 0 31 5 36 25 5 21 12 25 45 25 33 0 40 -4 45 -25 5 -19 13 -25
35 -25 16 0 29 3 29 8 0 4 -17 54 -38 112 -36 102 -38 105 -70 108 -20 2 -34
-2 -37 -10z m49 -80 c9 -35 8 -38 -15 -38 -15 0 -19 4 -15 16 3 9 6 22 6 30 0
22 17 16 24 -8z"/>
<path d="M1260 2166 l0 -116 25 0 c24 0 25 2 26 68 l1 67 20 -67 c19 -62 23
-68 47 -68 25 0 29 7 53 78 l26 77 1 -77 c1 -76 2 -78 26 -78 l25 0 0 116 0
115 -37 -3 c-36 -3 -37 -4 -63 -83 l-27 -80 -26 80 c-25 79 -25 80 -61 83
l-36 3 0 -115z"/>
<path d="M1630 2165 l0 -115 70 0 c63 0 70 2 70 20 0 17 -7 20 -40 20 -36 0
-40 3 -40 25 0 22 4 25 35 25 31 0 35 3 35 25 0 22 -4 25 -35 25 -28 0 -35 4
-35 20 0 17 7 20 40 20 36 0 40 3 40 25 0 24 -2 25 -70 25 l-70 0 0 -115z"/>
<path d="M1915 2258 c-48 -42 -51 -153 -5 -190 46 -37 146 -30 138 10 -3 13
-13 17 -48 17 -37 0 -46 4 -59 27 -12 20 -13 35 -5 65 9 38 10 38 56 37 39 0
49 3 54 19 8 26 -11 37 -63 37 -29 0 -50 -7 -68 -22z"/>
<path d="M2201 2266 c-33 -18 -50 -53 -50 -101 -1 -54 17 -86 59 -108 44 -22
96 -15 129 18 47 46 36 166 -18 195 -27 14 -91 12 -120 -4z m97 -48 c18 -18
15 -94 -4 -112 -38 -39 -84 -7 -84 58 0 48 13 66 50 66 14 0 31 -5 38 -12z"/>
<path d="M2640 2165 l0 -115 30 0 c29 0 30 2 30 45 l0 45 40 0 40 0 0 -45 c0
-41 2 -45 25 -45 l25 0 0 115 0 115 -25 0 c-23 0 -25 -4 -25 -45 l0 -45 -40 0
-40 0 0 45 c0 43 -1 45 -30 45 l-30 0 0 -115z"/>
<path d="M3001 2266 c-33 -18 -50 -53 -50 -101 -1 -54 17 -86 59 -108 44 -22
96 -15 129 18 47 46 36 166 -18 195 -27 14 -91 12 -120 -4z m97 -48 c18 -18
15 -94 -4 -112 -38 -39 -84 -7 -84 58 0 48 13 66 50 66 14 0 31 -5 38 -12z"/>
<path d="M3287 2273 c-4 -3 -7 -55 -7 -115 l0 -108 25 0 c24 0 25 2 25 78 l1
77 25 -78 c24 -73 27 -78 51 -75 23 3 30 12 49 68 l22 65 1 -67 c1 -66 2 -68
26 -68 l25 0 0 115 0 115 -34 0 c-34 0 -35 -1 -62 -82 l-28 -83 -25 83 c-24
80 -25 82 -56 82 -17 0 -35 -3 -38 -7z"/>
<path d="M3660 2165 l0 -115 65 0 c58 0 65 2 65 20 0 17 -7 20 -40 20 -36 0
-40 3 -40 25 0 23 4 25 40 25 36 0 40 3 40 25 0 23 -4 25 -40 25 -33 0 -40 3
-40 20 0 17 7 20 40 20 36 0 40 3 40 25 0 24 -2 25 -65 25 l-65 0 0 -115z"/>
<path d="M3921 2261 c-39 -39 -20 -96 39 -121 18 -8 30 -20 30 -31 0 -21 -24
-25 -64 -9 -24 9 -26 7 -26 -19 0 -26 4 -30 39 -36 51 -8 92 11 105 48 13 35
2 53 -53 90 -47 32 -45 51 6 45 26 -3 37 0 44 15 14 25 8 29 -50 35 -40 3 -52
1 -70 -17z"/>
<path d="M1940 1931 c0 -23 -4 -28 -18 -24 -24 6 -44 -19 -40 -49 2 -19 10
-24 41 -26 l37 -3 0 65 c0 37 -4 66 -10 66 -5 0 -10 -13 -10 -29z m-3 -57 c6
-16 -15 -37 -29 -28 -4 3 -8 14 -8 25 0 23 28 26 37 3z"/>
<path d="M3520 1895 c0 -37 4 -65 10 -65 6 0 10 28 10 65 0 37 -4 65 -10 65
-6 0 -10 -28 -10 -65z"/>
<path d="M740 1943 c0 -5 9 -19 20 -33 11 -14 20 -37 20 -52 0 -16 5 -28 10
-28 6 0 10 13 10 29 0 15 10 40 21 55 12 15 18 30 14 34 -4 4 -16 -4 -27 -18
l-20 -25 -15 23 c-15 21 -33 30 -33 15z"/>
<path d="M1270 1940 c0 -5 5 -10 10 -10 6 0 10 -22 10 -50 0 -27 5 -50 10 -50
6 0 10 23 10 50 0 38 4 50 15 50 8 0 15 5 15 10 0 6 -16 10 -35 10 -19 0 -35
-4 -35 -10z"/>
<path d="M2087 1944 c-11 -11 -8 -114 3 -114 6 0 10 9 10 19 0 12 8 21 21 23
30 4 47 33 33 56 -11 18 -54 28 -67 16z m53 -34 c0 -13 -7 -20 -20 -20 -13 0
-20 7 -20 20 0 13 7 20 20 20 13 0 20 -7 20 -20z"/>
<path d="M3150 1890 c0 -33 4 -60 10 -60 6 0 10 10 10 23 l1 22 18 -22 c11
-13 25 -23 32 -23 8 0 7 6 -5 19 -15 16 -15 19 -1 31 33 28 7 70 -44 70 -19 0
-21 -6 -21 -60z m55 20 c0 -8 -8 -16 -17 -18 -13 -2 -18 3 -18 18 0 15 5 20
18 18 9 -2 17 -10 17 -18z"/>
<path d="M3660 1890 l0 -60 43 2 c36 1 38 2 10 5 -25 3 -33 9 -33 24 0 14 7
19 25 19 14 0 25 5 25 10 0 6 -11 10 -25 10 -16 0 -25 6 -25 15 0 10 10 15 30
15 17 0 30 5 30 10 0 6 -18 10 -40 10 l-40 0 0 -60z"/>
<path d="M1683 1925 c-12 -23 -5 -95 8 -95 5 0 9 13 9 29 0 16 6 32 13 34 8 4
9 8 1 14 -6 4 -13 15 -16 23 -4 12 -7 11 -15 -5z"/>
<path d="M2420 1928 c0 -9 -6 -19 -12 -22 -10 -5 -10 -7 0 -12 6 -3 12 -19 12
-35 0 -16 5 -29 10 -29 6 0 10 13 10 29 0 16 4 31 10 33 5 2 0 14 -10 28 -15
19 -20 21 -20 8z"/>
<path d="M3890 1926 c0 -8 -6 -17 -12 -20 -10 -5 -10 -7 0 -12 6 -3 12 -19 12
-35 0 -16 5 -29 10 -29 6 0 10 13 10 29 0 16 6 32 13 35 10 5 10 7 0 12 -7 3
-13 12 -13 20 0 8 -4 14 -10 14 -5 0 -10 -6 -10 -14z"/>
<path d="M4103 1925 c-12 -23 -5 -95 8 -95 5 0 9 13 9 29 0 16 6 32 13 34 8 4
9 8 1 14 -6 4 -13 15 -16 23 -4 12 -7 11 -15 -5z"/>
<path d="M2891 1880 c-1 -30 2 -50 9 -50 5 0 10 22 10 50 0 28 -4 50 -8 50 -5
0 -9 -22 -11 -50z"/>
<path d="M894 1902 c-31 -21 -18 -72 19 -72 43 0 60 35 31 64 -17 17 -33 20
-50 8z m43 -28 c8 -22 -18 -37 -36 -20 -7 8 -10 19 -7 25 10 16 36 13 43 -5z"/>
<path d="M1002 1873 c3 -35 6 -38 36 -41 31 -3 32 -2 32 37 0 49 -17 55 -22 9
-2 -18 -7 -33 -13 -33 -5 0 -11 15 -13 33 -2 17 -8 32 -13 32 -6 0 -9 -17 -7
-37z"/>
<path d="M1120 1868 c0 -21 5 -38 10 -38 6 0 10 14 10 30 0 17 5 30 10 30 6 0
10 4 10 9 0 6 -9 9 -20 8 -16 -1 -20 -8 -20 -39z"/>
<path d="M1380 1870 c0 -22 5 -40 10 -40 6 0 10 14 10 30 0 17 5 30 10 30 6 0
10 5 10 10 0 6 -9 10 -20 10 -17 0 -20 -7 -20 -40z"/>
<path d="M1462 1873 c3 -35 6 -38 36 -41 31 -3 32 -2 32 37 0 49 -17 55 -22 9
-2 -18 -7 -33 -13 -33 -5 0 -11 15 -13 33 -2 17 -8 32 -13 32 -6 0 -9 -17 -7
-37z"/>
<path d="M1574 1896 c-7 -19 3 -36 22 -36 8 0 14 -5 14 -11 0 -6 -9 -8 -22 -4
-21 7 -22 6 -7 -9 19 -20 49 -11 49 14 0 9 -10 22 -22 29 l-23 11 24 -6 c17
-4 22 -2 19 7 -7 20 -47 23 -54 5z"/>
<path d="M1774 1902 c-17 -11 -22 -35 -12 -54 12 -24 55 -23 68 1 13 25 13 27
-6 45 -17 17 -33 20 -50 8z m33 -18 c-3 -3 -12 -4 -19 -1 -8 3 -5 6 6 6 11 1
17 -2 13 -5z m13 -28 c0 -9 -30 -14 -35 -6 -4 6 3 10 14 10 12 0 21 -2 21 -4z"/>
<path d="M2210 1895 c-6 -8 -10 -24 -8 -37 2 -19 10 -24 41 -26 37 -3 37 -3
37 36 0 36 -2 39 -29 40 -16 0 -35 -6 -41 -13z m47 -21 c6 -16 -15 -37 -29
-28 -4 3 -8 14 -8 25 0 23 28 26 37 3z"/>
<path d="M2330 1870 c0 -22 5 -40 10 -40 6 0 10 14 10 30 0 17 5 30 10 30 6 0
10 5 10 10 0 6 -9 10 -20 10 -17 0 -20 -7 -20 -40z"/>
<path d="M2500 1868 c0 -21 5 -38 10 -38 6 0 10 14 10 30 0 20 5 30 15 30 10
0 15 -10 15 -30 0 -16 5 -30 10 -30 15 0 12 56 -3 68 -7 6 -23 10 -35 9 -19
-1 -22 -7 -22 -39z"/>
<path d="M2620 1896 c-20 -26 -8 -61 22 -64 35 -4 60 37 38 63 -16 19 -44 19
-60 1z m37 -12 c-3 -3 -12 -4 -19 -1 -8 3 -5 6 6 6 11 1 17 -2 13 -5z m6 -31
c-7 -2 -19 -2 -25 0 -7 3 -2 5 12 5 14 0 19 -2 13 -5z"/>
<path d="M2735 1901 c-10 -9 -5 -71 5 -71 6 0 10 9 10 19 0 11 7 26 15 35 8 8
15 17 15 20 0 6 -39 4 -45 -3z"/>
<path d="M2960 1870 c0 -45 17 -55 22 -13 4 39 28 42 28 4 0 -17 5 -31 10 -31
14 0 12 54 -2 68 -7 7 -22 12 -35 12 -20 0 -23 -5 -23 -40z"/>
<path d="M3280 1896 c-20 -26 -8 -61 22 -64 35 -4 60 37 38 63 -16 19 -44 19
-60 1z m37 -12 c-3 -3 -12 -4 -19 -1 -8 3 -5 6 6 6 11 1 17 -2 13 -5z m6 -31
c-7 -2 -19 -2 -25 0 -7 3 -2 5 12 5 14 0 19 -2 13 -5z"/>
<path d="M3400 1895 c-7 -8 -10 -25 -6 -40 5 -21 12 -25 41 -25 34 0 35 1 35
40 0 37 -2 40 -29 40 -16 0 -34 -7 -41 -15z m47 -21 c8 -20 -8 -36 -26 -25
-15 10 -8 41 9 41 6 0 13 -7 17 -16z"/>
<path d="M3784 1896 c-7 -19 3 -36 22 -36 8 0 14 -5 14 -11 0 -6 -9 -8 -20 -4
-23 7 -28 -10 -5 -19 42 -16 62 32 23 53 l-23 11 24 -6 c17 -4 22 -2 19 7 -7
20 -47 23 -54 5z"/>
<path d="M3983 1902 c-37 -24 -15 -72 32 -72 34 0 35 1 35 38 0 36 -2 39 -28
40 -16 0 -33 -2 -39 -6z m42 -22 c4 -6 1 -18 -6 -26 -11 -13 -14 -13 -27 0 -8
8 -11 19 -8 25 9 14 33 14 41 1z"/>
<path d="M4194 1902 c-17 -11 -22 -35 -12 -54 12 -24 55 -23 68 1 13 25 13 27
-6 45 -17 17 -33 20 -50 8z m33 -18 c-3 -3 -12 -4 -19 -1 -8 3 -5 6 6 6 11 1
17 -2 13 -5z m13 -28 c0 -9 -30 -14 -35 -6 -4 6 3 10 14 10 12 0 21 -2 21 -4z"/>
</g>
</svg>
